<svg width="32" height="32" viewBox="0 0 32 32" fill="none" xmlns="http://www.w3.org/2000/svg">
<g clip-path="url(#clip0_206_3340)">
<path fill-rule="evenodd" clip-rule="evenodd" d="M16 0.761719C18.0011 0.761709 19.9826 1.15585 21.8314 1.92163C23.6802 2.68741 25.36 3.80983 26.775 5.22482C28.19 6.63981 29.3125 8.31964 30.0782 10.1684C30.844 12.0172 31.2382 13.9987 31.2382 15.9998C31.2382 24.4156 24.4158 31.2379 16 31.2379C7.58432 31.2379 0.761963 24.4156 0.761963 15.9998C0.761963 7.58408 7.58432 0.761719 16 0.761719ZM17.5239 17.5236H14.4762C10.7037 17.5236 7.46496 19.8084 6.06803 23.0699C8.27832 26.1693 11.9032 28.1903 16 28.1903C20.0969 28.1903 23.7218 26.1693 25.9321 23.0697C24.5352 19.8084 21.2964 17.5236 17.5239 17.5236ZM16 5.33315C13.4753 5.33315 11.4286 7.37986 11.4286 9.90458C11.4286 12.4293 13.4753 14.476 16 14.476C18.5248 14.476 20.5715 12.4293 20.5715 9.90458C20.5715 7.37986 18.5248 5.33315 16 5.33315Z" fill="white"/>
</g>
<defs>
<clipPath id="clip0_206_3340">
<rect width="32" height="32" fill="white"/>
</clipPath>
</defs>
</svg>
